<svg xmlns="http://www.w3.org/2000/svg" width="807.337" height="687.272" viewBox="0 0 605.50299 515.45374"><defs><clipPath id="a"><path d="M0 1190.55h841.89V0H0v1190.55z"/></clipPath></defs><path d="M87.51 214.392v-22.554h15.317v-47.66h16.17v45.107h13.617v25.107l15.868-3.608V108.435h16.473v97.02l16.865-2.553.681-25.531 20.752.85 8.67-73.19h14.737l-4.683 72.34 16.635 1.702 6.343 17.872 17.02-4.255v-32.98l7.662-114.255h24.393l-5.669 131.916-.852 13.617h15.244l2.902-47.66h105.258l-6.399 53.617 19.164 5.957 12.766-28.936V78.648l19.576 3.403-3.404 88.51 3.404 34.044 5.955 6.179-5.955 12.544-78.724-12.544-111.9-4.477-73.094 8.085L92.31 245.81l-4.8-31.418z" fill="#b8b6b5"/><path d="M87.51 214.392v-22.554h15.317v-47.66h16.17v45.107h13.617v25.107l15.868-3.608V108.435h16.473v97.02l16.865-2.553.681-25.531 20.752.85 8.67-73.19h14.737l-4.683 72.34 16.635 1.702 6.343 17.872 17.02-4.255v-32.98l7.662-114.255h24.393l-5.669 131.916-.852 13.617h15.244l2.902-47.66h105.258l-6.399 53.617 19.164 5.957 12.766-28.936V78.648l19.576 3.403-3.404 88.51 3.404 34.044 5.955 6.179-5.955 12.544-78.724-12.544-111.9-4.477-73.094 8.085L92.31 245.81l-4.8-31.418z" fill="none" stroke="#2e2113" stroke-width="2.4"/><path d="M316.98 168.859h13.025v-11.915H316.98v11.915zM342.827 168.859h11.066v-11.915h-11.066v11.915zM370.55 168.859h13.98v-11.915h-13.98v11.915z" fill="#fff" stroke="#2e2113" stroke-width="2.4"/><path d="M330.005 191.838v-12.766h40.545v17.872" fill="none" stroke="#2e2113" stroke-width="2.4"/><path d="M192.302 188.009v3.829h9.25v-8.511h-9.25v4.682z" fill="#fff"/><path d="M192.302 188.009v3.829h9.25v-8.511h-9.25v4.682z" fill="none" stroke="#2e2113" stroke-width="2.4"/><path d="M216.02 191.838h10.641v-8.511h-10.64v8.51zM100.224 210.783h6.86v-13.84h-6.86v13.84zM115.143 210.783h8.961v-13.84h-8.96v13.84z" fill="#fff" stroke="#2e2113" stroke-width="2.4"/><g clip-path="url(#a)" transform="matrix(1 0 0 -1 -130.083 872.23)"><path d="M719.586 542.356c0-65.766-128.383-119.09-286.75-119.09-158.371 0-286.753 53.324-286.753 119.09 0 65.77 128.382 119.091 286.753 119.091 158.367 0 286.75-53.32 286.75-119.09z" fill="none" stroke="#0086c9" stroke-width="32"/><path d="M700.035 534.235c0-61.28-119.629-110.969-267.199-110.969-147.572 0-267.202 49.688-267.202 110.97 0 61.285 119.63 110.971 267.202 110.971 147.57 0 267.2-49.686 267.2-110.972z" fill="none" stroke="#f13d37" stroke-width="32"/><path d="M681.932 526.718c0-57.131-111.525-103.451-249.096-103.451-137.574 0-249.1 46.32-249.1 103.45 0 57.134 111.526 103.453 249.1 103.453 137.57 0 249.096-46.32 249.096-103.452z" fill="none" stroke="#2e2113" stroke-width="32"/><path d="M661.656 518.298c0-52.48-102.445-95.031-228.82-95.031-126.377 0-228.824 42.55-228.824 95.03 0 52.48 102.447 95.03 228.824 95.03 126.375 0 228.82-42.55 228.82-95.03z" fill="none" stroke="#ffd633" stroke-width="24"/><path d="M643.275 510.669c0-48.27-94.217-87.402-210.439-87.402-116.227 0-210.444 39.132-210.444 87.402 0 48.262 94.217 87.39 210.444 87.39 116.222 0 210.44-39.128 210.44-87.39z" fill="none" stroke="#169b56" stroke-width="16"/><path d="M501.26 409.435l20.424 46.422-235.54 10.016-40.92 21.14 6.325-59.64s65.959-58.946 68.615-58.344c2.656.6 181.096 40.406 181.096 40.406" fill="#fff"/><path d="M501.26 409.435l20.424 46.422-235.54 10.016-40.92 21.14 6.325-59.64s65.959-58.946 68.615-58.344c2.656.6 181.096 40.406 181.096 40.406z" fill="none" stroke="#fff" stroke-width="24"/><path d="M326.67 484.048c0-26.61-21.57-48.18-48.182-48.18-26.609 0-48.18 21.57-48.18 48.18 0 26.605 21.571 48.174 48.18 48.174 26.611 0 48.182-21.57 48.182-48.174zM549.367 476.2c0-26.609-21.574-48.184-48.184-48.184-26.609 0-48.179 21.575-48.179 48.184 0 26.605 21.57 48.176 48.18 48.176s48.183-21.57 48.183-48.176z" fill="none" stroke="#fff" stroke-width="24"/><path d="M278.489 532.222v-96.354M230.307 484.048h96.363M245.226 518.9l66.677-68.458M243.967 450.442l67.936 67.93" fill="none" stroke="#8c8886" stroke-width="3.2"/><path d="M326.67 484.048c0-26.61-21.57-48.18-48.182-48.18-26.609 0-48.18 21.57-48.18 48.18 0 26.605 21.571 48.174 48.18 48.174 26.611 0 48.182-21.57 48.182-48.174z" fill="none" stroke="#2e2113" stroke-width="16"/><path d="M501.184 524.376v-96.359M453.004 476.2h96.363M467.922 511.052l66.676-68.46M466.664 442.593l67.934 67.932" fill="none" stroke="#8c8886" stroke-width="3.2"/><path d="M549.367 476.2c0-26.609-21.574-48.184-48.184-48.184-26.609 0-48.179 21.575-48.179 48.184 0 26.605 21.57 48.176 48.18 48.176s48.183-21.57 48.183-48.176z" fill="none" stroke="#2e2113" stroke-width="16"/><path d="M322.385 564.825l-7.203 17.555M455.797 582.38l-7.623 22.797 9.209 35.219-9.21 11.429-11.43 6.014" fill="none" stroke="#fff" stroke-width="16"/><path d="M451.648 618.462l-10.092 15.918h-17.443" fill="none" stroke="#fff" stroke-width="16"/><path d="M338.148 602.376c0-6.313-11.445-11.43-25.563-11.43-14.12 0-25.565 5.117-25.565 11.43 0 6.311 11.445 0 25.565 0 14.118 0 25.563 6.311 25.563 0" fill="#2e2113"/><path d="M338.148 602.376c0-6.313-11.445-11.43-25.563-11.43-14.12 0-25.565 5.117-25.565 11.43 0 6.311 11.445 0 25.565 0 14.118 0 25.563 6.311 25.563 0z" fill="none" stroke="#fff" stroke-width="16"/><path d="M278.489 484.048h78.255l-30.073 70.336-48.182-70.336z" fill="none" stroke="#a19f9d" stroke-width="8" stroke-linecap="round"/><path d="M457.383 576.685l24.063-72.031 19.738-28.453" fill="none" stroke="#a19f9d" stroke-width="8"/><path d="M460.088 571.544l-48.121-41.703-8.29-7.106-8.437 9.487M368.695 489.58L392.057 512l-8.7 9.937" fill="none" stroke="#a19f9d" stroke-width="12"/><path d="M322.385 564.825l-7.203 17.555" fill="none" stroke="#a19f9d" stroke-width="8"/><path d="M338.148 602.376c0-6.313-11.445-11.43-25.563-11.43-14.12 0-25.565 5.117-25.565 11.43 0 6.311 11.445 0 25.565 0 14.118 0 25.563 6.311 25.563 0" fill="#2e2113"/><path d="M338.148 602.376c0-6.313-11.445-11.43-25.563-11.43-14.12 0-25.565 5.117-25.565 11.43 0 6.311 11.445 0 25.565 0 14.118 0 25.563 6.311 25.563 0zM455.797 582.38l-7.623 22.797 9.209 35.219-9.21 11.429-11.43 6.014" fill="none" stroke="#2e2113" stroke-width="8"/><path d="M451.648 618.462l-10.092 15.918h-17.443" fill="none" stroke="#2e2113" stroke-width="8"/><path d="M371.479 483.001c0-8.137-6.598-14.734-14.735-14.734-8.14 0-14.738 6.597-14.738 14.734 0 8.139 6.598 14.734 14.738 14.734 8.137 0 14.735-6.595 14.735-14.734zM285.455 484.407a7.52 7.52 0 1 0-15.04.003 7.52 7.52 0 0 0 15.04-.003z" fill="none" stroke="#2e2113" stroke-width="4"/><path d="M277.936 476.89l78.808-8.623M277.936 491.927l78.808 5.809" fill="none" stroke="#2e2113" stroke-width="4" stroke-dasharray="4,1.6"/><path d="M579.293 802.947l-11.063 9.36v5.958h5.532s7.234 2.553 5.531 5.107c-1.699 2.553-5.105-2.554-1.699 2.553 3.402 5.106-5.11 12.766 3.402 5.106s11.063-8.511 11.063-8.511-1.7 5.107 5.107 4.256l6.811-.851 3.402-7.316 8.512-5.45s3.375 3.405 3.39-.852c.012-4.255 0-9.36 0-9.36H607.379s-3.402-.852-7.66 0c-4.254.85-5.959-4.257-5.959-4.257-7.656.852-14.467 4.257-14.467 4.257" fill="#f2f2f2"/><path d="M579.293 802.947l-11.063 9.36v5.958h5.532s7.234 2.553 5.531 5.107c-1.699 2.553-5.105-2.554-1.699 2.553 3.402 5.106-5.11 12.766 3.402 5.106s11.063-8.511 11.063-8.511-1.7 5.107 5.107 4.256l6.811-.851 3.402-7.316 8.512-5.45s3.375 3.405 3.39-.852c.012-4.255 0-9.36 0-9.36H607.379s-3.402-.852-7.66 0c-4.254.85-5.959-4.257-5.959-4.257-7.656.852-14.467 4.257-14.467 4.257z" fill="none" stroke="#b8b6b5" stroke-width="2.4"/><path d="M418.444 838.69s7.378-.851 9.22 3.405c1.844 4.255.84 5.106 5.172 5.106 4.33 0 6.736 2.553 9.789 0l3.055-2.553s.476 1.065 7.894-1.17c7.422-2.234 3.168-10.746 7.422-2.234 4.256 8.51 5.342 7.66 6.926 11.063 1.586 3.405 3.289-1.701 1.586 3.405s4.254 2.553-1.703 5.106c-5.957 2.554 5.957 6.809-5.957 2.554-11.914-4.256-8.51-3.406-11.914-4.256-3.407-.851-7.938-2.554-12.055 0-4.117 2.553.99-.851-4.117 2.553l-5.106 3.405s-1.427 4.256-4.543 5.106l-3.116.85h-8.511s-.852-2.552 0-5.956l.85-3.405s4.35-3.404-1.23-3.404c-5.578 0 .38-.85-5.578 0s-6.781 3.404-11.05 3.404c-4.268 0-4.268 5.107-4.268 0v-5.106c0-5.957-5.958-2.554 0-5.957 5.957-3.405 13.617-6.81 13.617-6.81l3.403-2.552v-3.705s-.001-7.686 5.107-3.268l5.107 4.419z" fill="#f2f2f2"/><path d="M418.444 838.69s7.378-.851 9.22 3.405c1.844 4.255.84 5.106 5.172 5.106 4.33 0 6.736 2.553 9.789 0l3.055-2.553s.476 1.065 7.894-1.17c7.422-2.234 3.168-10.746 7.422-2.234 4.256 8.51 5.342 7.66 6.926 11.063 1.586 3.405 3.289-1.701 1.586 3.405s4.254 2.553-1.703 5.106c-5.957 2.554 5.957 6.809-5.957 2.554-11.914-4.256-8.51-3.406-11.914-4.256-3.407-.851-7.938-2.554-12.055 0-4.117 2.553.99-.851-4.117 2.553l-5.106 3.405s-1.427 4.256-4.543 5.106l-3.116.85h-8.511s-.852-2.552 0-5.956l.85-3.405s4.35-3.404-1.23-3.404c-5.578 0 .38-.85-5.578 0s-6.781 3.404-11.05 3.404c-4.268 0-4.268 5.107-4.268 0v-5.106c0-5.957-5.958-2.554 0-5.957 5.957-3.405 13.617-6.81 13.617-6.81l3.403-2.552v-3.705s-.001-7.686 5.107-3.268l5.107 4.419z" fill="none" stroke="#b8b6b5" stroke-width="2.4"/><path d="M351.423 779.966s.637-2.553-5.32 3.405c-5.958 5.958-7.955 6.81-7.955 6.81s-.238 10.211 3.858 8.51c4.097-1.703 13.457-15.32 4.097-1.703l-9.363 13.618s-4.255 4.942 0 5.875c4.256.932 9.363 0 9.363 0h5.32s-4.854-2.472.02-3.323c4.872-.85 6.574 1.703 9.978-.85 3.405-2.554 3.405 5.106 3.405-2.554 0-7.659 1.701-4.255 0-7.659-1.703-3.405-11.916 2.553-1.703-3.405 10.213-5.957 8.511-1.702 10.213-5.957s3.404 4.255 1.702-4.255c-1.702-8.512 4.255-8.512-1.702-8.512h-5.957s-3.404-1.087-5.958-.543c-2.553.543.852 3.097-2.553.543-3.405-2.553-7.445 0-7.445 0" fill="#f2f2f2"/><path d="M351.423 779.966s.637-2.553-5.32 3.405c-5.958 5.958-7.955 6.81-7.955 6.81s-.238 10.211 3.858 8.51c4.097-1.703 13.457-15.32 4.097-1.703l-9.363 13.618s-4.255 4.942 0 5.875c4.256.932 9.363 0 9.363 0h5.32s-4.854-2.472.02-3.323c4.872-.85 6.574 1.703 9.978-.85 3.405-2.554 3.405 5.106 3.405-2.554 0-7.659 1.701-4.255 0-7.659-1.703-3.405-11.916 2.553-1.703-3.405 10.213-5.957 8.511-1.702 10.213-5.957s3.404 4.255 1.702-4.255c-1.702-8.512 4.255-8.512-1.702-8.512h-5.957s-3.404-1.087-5.958-.543c-2.553.543.852 3.097-2.553.543-3.405-2.553-7.445 0-7.445 0z" fill="none" stroke="#b8b6b5" stroke-width="2.4"/><path d="M278.565 773.159s-.548 5.39-3.952 5.674c-3.403.283-7.66 1.985-7.66 5.39 0 3.404-3.404 5.107 0 9.36 3.405 4.257-2.552.852 3.405 4.257 5.957 3.404 4.498 2.552 8.207.85 3.708-1.701 4.049-3.403 6.006-5.106 1.957-1.701 7.063 1.752 8.765 4.28 1.703 2.529-5.105 1.678 1.703 2.529l6.807.85s3.406.9 4.257-3.38c.85-4.28-.851-4.28 0-7.683.85-3.404-8.02.85.245-6.808l8.265-7.66s.537-.851-2.71-2.553-1.545 0-6.651 0c-5.107 0-5.958-3.216-9.363-.757-3.403 2.459.852 7.565-3.403 2.459-4.256-5.106-.852-5.106-4.256-5.106-3.403 0-9.665 3.404-9.665 3.404" fill="#f2f2f2"/><path d="M278.565 773.159s-.548 5.39-3.952 5.674c-3.403.283-7.66 1.985-7.66 5.39 0 3.404-3.404 5.107 0 9.36 3.405 4.257-2.552.852 3.405 4.257 5.957 3.404 4.498 2.552 8.207.85 3.708-1.701 4.049-3.403 6.006-5.106 1.957-1.701 7.063 1.752 8.765 4.28 1.703 2.529-5.105 1.678 1.703 2.529l6.807.85s3.406.9 4.257-3.38c.85-4.28-.851-4.28 0-7.683.85-3.404-8.02.85.245-6.808l8.265-7.66s.537-.851-2.71-2.553-1.545 0-6.651 0c-5.107 0-5.958-3.216-9.363-.757-3.403 2.459.852 7.565-3.403 2.459-4.256-5.106-.852-5.106-4.256-5.106-3.403 0-9.665 3.404-9.665 3.404z" fill="none" stroke="#b8b6b5" stroke-width="2.4"/><path d="M237.167 737.414h-6.86l-7.914 11.064v4.255s-.308 6.809 0 7.66c.305.85.305 11.916 3.71 9.362 3.404-2.554-.851 1.7 3.404-2.554 4.256-4.254 14.454-3.404 14.46-3.404.009 0 3.813 0 5.74-.85 1.928-.851 2.779 1.7 4.48-1.703 1.703-3.404-4.254-4.724 0-7.47 4.257-2.743.852.66 4.257-2.743 3.403-3.404 3.403.852 3.403-3.404 0-4.255-1.701-4.255-4.254-5.107-2.554-.85-7.886-.85-7.886-.85s-2.38 2.554-4.48-.852l-2.103-3.404h-5.957z" fill="#f2f2f2"/><path d="M237.167 737.414h-6.86l-7.914 11.064v4.255s-.308 6.809 0 7.66c.305.85.305 11.916 3.71 9.362 3.404-2.554-.851 1.7 3.404-2.554 4.256-4.254 14.454-3.404 14.46-3.404.009 0 3.813 0 5.74-.85 1.928-.851 2.779 1.7 4.48-1.703 1.703-3.404-4.254-4.724 0-7.47 4.257-2.743.852.66 4.257-2.743 3.403-3.404 3.403.852 3.403-3.404 0-4.255-1.701-4.255-4.254-5.107-2.554-.85-7.886-.85-7.886-.85s-2.38 2.554-4.48-.852l-2.103-3.404h-5.957z" fill="none" stroke="#b8b6b5" stroke-width="2.4"/></g></svg>