<?xml version="1.0" encoding="UTF-8" standalone="no"?>
<!-- Created with Inkscape (http://www.inkscape.org/) -->

<svg
   xmlns:dc="http://purl.org/dc/elements/1.1/"
   xmlns:cc="http://creativecommons.org/ns#"
   xmlns:rdf="http://www.w3.org/1999/02/22-rdf-syntax-ns#"
   xmlns:svg="http://www.w3.org/2000/svg"
   xmlns="http://www.w3.org/2000/svg"
   xmlns:sodipodi="http://sodipodi.sourceforge.net/DTD/sodipodi-0.dtd"
   xmlns:inkscape="http://www.inkscape.org/namespaces/inkscape"
   width="605.50299pt"
   height="515.45374pt"
   viewBox="0 0 605.50299 515.45374"
   id="svg6928"
   version="1.1"
   inkscape:version="0.91 r13725"
   sodipodi:docname="klapp-logo.svg">
  <defs
     id="defs6930">
    <clipPath
       clipPathUnits="userSpaceOnUse"
       id="clipPath48">
      <path
         d="m 0,1190.55 841.89,0 L 841.89,0 0,0 0,1190.55 Z"
         id="path50"
         inkscape:connector-curvature="0" />
    </clipPath>
  </defs>
  <sodipodi:namedview
     pagecolor="#ffffff"
     bordercolor="#666666"
     borderopacity="1.0"
     inkscape:pageopacity="0.0"
     inkscape:pageshadow="2"
     inkscape:zoom="0.8"
     inkscape:cx="362.18937"
     inkscape:cy="339.65859"
     inkscape:document-units="pt"
     inkscape:current-layer="layer1"
     id="namedview6932"
     showgrid="false"
     fit-margin-top="0"
     fit-margin-left="0"
     fit-margin-right="0"
     fit-margin-bottom="0"
     inkscape:window-width="1916"
     inkscape:window-height="1045"
     inkscape:window-x="0"
     inkscape:window-y="16"
     inkscape:window-maximized="0" />
  <metadata
     id="metadata6934">
    <rdf:RDF>
      <cc:Work
         rdf:about="">
        <dc:format>image/svg+xml</dc:format>
        <dc:type
           rdf:resource="http://purl.org/dc/dcmitype/StillImage" />
        <dc:title></dc:title>
      </cc:Work>
    </rdf:RDF>
  </metadata>
  <g
     inkscape:label="Layer 1"
     inkscape:groupmode="layer"
     id="layer1"
     transform="translate(121.7515,71.72688)">
    <g
       id="g7401">
      <g
         transform="matrix(1,0,0,-1,-34.24211,142.66464)"
         id="g12">
        <path
           inkscape:connector-curvature="0"
           id="path14"
           style="fill:#b8b6b5;fill-opacity:1;fill-rule:nonzero;stroke:none"
           d="m 0,0 0,22.554 15.318,0 0,47.659 16.17,0 0,-45.106 13.617,0 0,-25.107 15.868,3.608 0,26.605 0,75.744 16.473,0 0,-97.02 16.865,2.553 0.681,25.531 20.752,-0.851 8.67,73.191 14.737,0 -4.683,-72.34 16.635,-1.702 6.343,-17.872 17.019,4.255 0,32.979 7.663,114.256 24.393,0 L 200.852,37.021 200,23.404 l 15.244,0 2.902,47.66 105.258,0 -6.399,-53.617 19.164,-5.957 12.766,28.936 0,95.318 19.576,-3.403 L 365.107,43.83 368.511,9.787 374.466,3.608 368.511,-8.936 289.787,3.608 177.886,8.085 104.793,0 4.8,-31.418 0,0 Z" />
      </g>
      <g
         transform="matrix(1,0,0,-1,-34.24211,142.66464)"
         id="g16">
        <path
           inkscape:connector-curvature="0"
           id="path18"
           style="fill:none;stroke:#2e2113;stroke-width:2.4000001;stroke-linecap:butt;stroke-linejoin:miter;stroke-miterlimit:4;stroke-dasharray:none;stroke-opacity:1"
           d="m 0,0 0,22.554 15.318,0 0,47.659 16.17,0 0,-45.106 13.617,0 0,-25.107 15.868,3.608 0,26.605 0,75.744 16.473,0 0,-97.02 16.865,2.553 0.681,25.531 20.752,-0.851 8.67,73.191 14.737,0 -4.683,-72.34 16.635,-1.702 6.343,-17.872 17.019,4.255 0,32.979 7.663,114.256 24.393,0 L 200.852,37.021 200,23.404 l 15.244,0 2.902,47.66 105.258,0 -6.399,-53.617 19.164,-5.957 12.766,28.936 0,95.318 19.576,-3.403 L 365.107,43.83 368.511,9.787 374.466,3.608 368.511,-8.936 289.787,3.608 177.886,8.085 104.793,0 4.8,-31.418 0,0 Z" />
      </g>
      <path
         inkscape:connector-curvature="0"
         id="path20"
         style="fill:#ffffff;fill-opacity:1;fill-rule:nonzero;stroke:#2e2113;stroke-width:2.4000001;stroke-linecap:butt;stroke-linejoin:miter;stroke-miterlimit:4;stroke-dasharray:none;stroke-opacity:1"
         d="m 195.2286,97.132044 13.025,0 0,-11.915 -13.025,0 0,11.915 z" />
      <path
         inkscape:connector-curvature="0"
         id="path22"
         style="fill:#ffffff;fill-opacity:1;fill-rule:nonzero;stroke:#2e2113;stroke-width:2.4000001;stroke-linecap:butt;stroke-linejoin:miter;stroke-miterlimit:4;stroke-dasharray:none;stroke-opacity:1"
         d="m 221.0756,97.132044 11.066,0 0,-11.915 -11.066,0 0,11.915 z" />
      <path
         inkscape:connector-curvature="0"
         id="path24"
         style="fill:#ffffff;fill-opacity:1;fill-rule:nonzero;stroke:#2e2113;stroke-width:2.4000001;stroke-linecap:butt;stroke-linejoin:miter;stroke-miterlimit:4;stroke-dasharray:none;stroke-opacity:1"
         d="m 248.7986,97.132044 13.98,0 0,-11.915 -13.98,0 0,11.915 z" />
      <g
         transform="matrix(1,0,0,-1,208.25349,120.11094)"
         id="g26">
        <path
           inkscape:connector-curvature="0"
           id="path28"
           style="fill:none;stroke:#2e2113;stroke-width:2.4000001;stroke-linecap:butt;stroke-linejoin:miter;stroke-miterlimit:4;stroke-dasharray:none;stroke-opacity:1"
           d="m 0,0 0,12.766 40.545,0 0,-17.872" />
      </g>
      <g
         transform="matrix(1,0,0,-1,70.55089,116.28184)"
         id="g30">
        <path
           inkscape:connector-curvature="0"
           id="path32"
           style="fill:#ffffff;fill-opacity:1;fill-rule:nonzero;stroke:none"
           d="m 0,0 0,-3.829 9.249,0 0,8.511 L 0,4.682 0,0 Z" />
      </g>
      <g
         transform="matrix(1,0,0,-1,70.55089,116.28184)"
         id="g34">
        <path
           inkscape:connector-curvature="0"
           id="path36"
           style="fill:none;stroke:#2e2113;stroke-width:2.4000001;stroke-linecap:butt;stroke-linejoin:miter;stroke-miterlimit:4;stroke-dasharray:none;stroke-opacity:1"
           d="m 0,0 0,-3.829 9.249,0 0,8.511 L 0,4.682 0,0 Z" />
      </g>
      <path
         inkscape:connector-curvature="0"
         id="path38"
         style="fill:#ffffff;fill-opacity:1;fill-rule:nonzero;stroke:#2e2113;stroke-width:2.4000001;stroke-linecap:butt;stroke-linejoin:miter;stroke-miterlimit:4;stroke-dasharray:none;stroke-opacity:1"
         d="m 94.2686,120.11104 10.641,0 0,-8.511 -10.641,0 0,8.511 z" />
      <path
         inkscape:connector-curvature="0"
         id="path40"
         style="fill:#ffffff;fill-opacity:1;fill-rule:nonzero;stroke:#2e2113;stroke-width:2.4000001;stroke-linecap:butt;stroke-linejoin:miter;stroke-miterlimit:4;stroke-dasharray:none;stroke-opacity:1"
         d="m -21.5274,139.05604 6.859,0 0,-13.839 -6.859,0 0,13.839 z" />
      <path
         inkscape:connector-curvature="0"
         id="path42"
         style="fill:#ffffff;fill-opacity:1;fill-rule:nonzero;stroke:#2e2113;stroke-width:2.4000001;stroke-linecap:butt;stroke-linejoin:miter;stroke-miterlimit:4;stroke-dasharray:none;stroke-opacity:1"
         d="m -6.6084,139.05604 8.961,0 0,-13.839 -8.961,0 0,13.839 z" />
      <g
         id="g44"
         transform="matrix(1,0,0,-1,-251.8344,800.50402)">
        <g
           clip-path="url(#clipPath48)"
           id="g46">
          <g
             transform="translate(719.5859,542.3564)"
             id="g52">
            <path
               inkscape:connector-curvature="0"
               id="path54"
               style="fill:none;stroke:#0086c9;stroke-width:32;stroke-linecap:butt;stroke-linejoin:miter;stroke-miterlimit:4;stroke-dasharray:none;stroke-opacity:1"
               d="m 0,0 c 0,-65.766 -128.383,-119.09 -286.75,-119.09 -158.371,0 -286.753,53.324 -286.753,119.09 0,65.77 128.382,119.091 286.753,119.091 C -128.383,119.091 0,65.77 0,0 Z" />
          </g>
          <g
             transform="translate(700.0352,534.2354)"
             id="g56">
            <path
               inkscape:connector-curvature="0"
               id="path58"
               style="fill:none;stroke:#f13d37;stroke-width:32;stroke-linecap:butt;stroke-linejoin:miter;stroke-miterlimit:4;stroke-dasharray:none;stroke-opacity:1"
               d="m 0,0 c 0,-61.281 -119.629,-110.969 -267.199,-110.969 -147.572,0 -267.202,49.688 -267.202,110.969 0,61.286 119.63,110.972 267.202,110.972 C -119.629,110.972 0,61.286 0,0 Z" />
          </g>
          <g
             transform="translate(681.9316,526.7178)"
             id="g60">
            <path
               inkscape:connector-curvature="0"
               id="path62"
               style="fill:none;stroke:#2e2113;stroke-width:32;stroke-linecap:butt;stroke-linejoin:miter;stroke-miterlimit:4;stroke-dasharray:none;stroke-opacity:1"
               d="m 0,0 c 0,-57.131 -111.525,-103.451 -249.096,-103.451 -137.574,0 -249.099,46.32 -249.099,103.451 0,57.133 111.525,103.452 249.099,103.452 C -111.525,103.452 0,57.133 0,0 Z" />
          </g>
          <g
             transform="translate(661.6563,518.2979)"
             id="g64">
            <path
               inkscape:connector-curvature="0"
               id="path66"
               style="fill:none;stroke:#ffd633;stroke-width:24;stroke-linecap:butt;stroke-linejoin:miter;stroke-miterlimit:4;stroke-dasharray:none;stroke-opacity:1"
               d="m 0,0 c 0,-52.48 -102.445,-95.031 -228.82,-95.031 -126.377,0 -228.824,42.551 -228.824,95.031 0,52.48 102.447,95.03 228.824,95.03 C -102.445,95.03 0,52.48 0,0 Z" />
          </g>
          <g
             transform="translate(643.2754,510.6689)"
             id="g68">
            <path
               inkscape:connector-curvature="0"
               id="path70"
               style="fill:none;stroke:#169b56;stroke-width:16;stroke-linecap:butt;stroke-linejoin:miter;stroke-miterlimit:4;stroke-dasharray:none;stroke-opacity:1"
               d="m 0,0 c 0,-48.27 -94.217,-87.402 -210.439,-87.402 -116.227,0 -210.444,39.132 -210.444,87.402 0,48.262 94.217,87.391 210.444,87.391 C -94.217,87.391 0,48.262 0,0 Z" />
          </g>
          <g
             transform="translate(501.2598,409.4346)"
             id="g72">
            <path
               inkscape:connector-curvature="0"
               id="path74"
               style="fill:#ffffff;fill-opacity:1;fill-rule:nonzero;stroke:none"
               d="m 0,0 20.424,46.422 -235.54,10.016 -40.919,21.14 6.324,-59.639 c 0,0 65.959,-58.947 68.615,-58.345 C -178.44,-39.805 0,0 0,0" />
          </g>
          <g
             transform="translate(501.2598,409.4346)"
             id="g76">
            <path
               inkscape:connector-curvature="0"
               id="path78"
               style="fill:none;stroke:#ffffff;stroke-width:24;stroke-linecap:butt;stroke-linejoin:miter;stroke-miterlimit:4;stroke-dasharray:none;stroke-opacity:1"
               d="m 0,0 20.424,46.422 -235.54,10.016 -40.919,21.14 6.324,-59.639 c 0,0 65.959,-58.947 68.615,-58.345 C -178.44,-39.805 0,0 0,0 Z" />
          </g>
          <g
             transform="translate(326.6704,484.0479)"
             id="g80">
            <path
               inkscape:connector-curvature="0"
               id="path82"
               style="fill:none;stroke:#ffffff;stroke-width:24;stroke-linecap:butt;stroke-linejoin:miter;stroke-miterlimit:4;stroke-dasharray:none;stroke-opacity:1"
               d="m 0,0 c 0,-26.609 -21.571,-48.18 -48.182,-48.18 -26.609,0 -48.181,21.571 -48.181,48.18 0,26.605 21.572,48.174 48.181,48.174 C -21.571,48.174 0,26.605 0,0 Z" />
          </g>
          <g
             transform="translate(549.3672,476.2002)"
             id="g84">
            <path
               inkscape:connector-curvature="0"
               id="path86"
               style="fill:none;stroke:#ffffff;stroke-width:24;stroke-linecap:butt;stroke-linejoin:miter;stroke-miterlimit:4;stroke-dasharray:none;stroke-opacity:1"
               d="m 0,0 c 0,-26.609 -21.574,-48.184 -48.184,-48.184 -26.609,0 -48.179,21.575 -48.179,48.184 0,26.605 21.57,48.176 48.179,48.176 C -21.574,48.176 0,26.605 0,0 Z" />
          </g>
          <g
             transform="translate(278.4888,532.2217)"
             id="g88">
            <path
               inkscape:connector-curvature="0"
               id="path90"
               style="fill:none;stroke:#8c8886;stroke-width:3.20000005;stroke-linecap:butt;stroke-linejoin:miter;stroke-miterlimit:4;stroke-dasharray:none;stroke-opacity:1"
               d="M 0,0 0,-96.354" />
          </g>
          <g
             transform="translate(230.3071,484.0479)"
             id="g92">
            <path
               inkscape:connector-curvature="0"
               id="path94"
               style="fill:none;stroke:#8c8886;stroke-width:3.20000005;stroke-linecap:butt;stroke-linejoin:miter;stroke-miterlimit:4;stroke-dasharray:none;stroke-opacity:1"
               d="M 0,0 96.363,0" />
          </g>
          <g
             transform="translate(245.2261,518.8994)"
             id="g96">
            <path
               inkscape:connector-curvature="0"
               id="path98"
               style="fill:none;stroke:#8c8886;stroke-width:3.20000005;stroke-linecap:butt;stroke-linejoin:miter;stroke-miterlimit:4;stroke-dasharray:none;stroke-opacity:1"
               d="M 0,0 66.677,-68.457" />
          </g>
          <g
             transform="translate(243.9673,450.4424)"
             id="g100">
            <path
               inkscape:connector-curvature="0"
               id="path102"
               style="fill:none;stroke:#8c8886;stroke-width:3.20000005;stroke-linecap:butt;stroke-linejoin:miter;stroke-miterlimit:4;stroke-dasharray:none;stroke-opacity:1"
               d="M 0,0 67.936,67.93" />
          </g>
          <g
             transform="translate(326.6704,484.0479)"
             id="g104">
            <path
               inkscape:connector-curvature="0"
               id="path106"
               style="fill:none;stroke:#2e2113;stroke-width:16;stroke-linecap:butt;stroke-linejoin:miter;stroke-miterlimit:4;stroke-dasharray:none;stroke-opacity:1"
               d="m 0,0 c 0,-26.609 -21.571,-48.18 -48.182,-48.18 -26.609,0 -48.181,21.571 -48.181,48.18 0,26.605 21.572,48.174 48.181,48.174 C -21.571,48.174 0,26.605 0,0 Z" />
          </g>
          <g
             transform="translate(501.1836,524.376)"
             id="g108">
            <path
               inkscape:connector-curvature="0"
               id="path110"
               style="fill:none;stroke:#8c8886;stroke-width:3.20000005;stroke-linecap:butt;stroke-linejoin:miter;stroke-miterlimit:4;stroke-dasharray:none;stroke-opacity:1"
               d="M 0,0 0,-96.359" />
          </g>
          <g
             transform="translate(453.0039,476.2002)"
             id="g112">
            <path
               inkscape:connector-curvature="0"
               id="path114"
               style="fill:none;stroke:#8c8886;stroke-width:3.20000005;stroke-linecap:butt;stroke-linejoin:miter;stroke-miterlimit:4;stroke-dasharray:none;stroke-opacity:1"
               d="M 0,0 96.363,0" />
          </g>
          <g
             transform="translate(467.9219,511.0518)"
             id="g116">
            <path
               inkscape:connector-curvature="0"
               id="path118"
               style="fill:none;stroke:#8c8886;stroke-width:3.20000005;stroke-linecap:butt;stroke-linejoin:miter;stroke-miterlimit:4;stroke-dasharray:none;stroke-opacity:1"
               d="M 0,0 66.676,-68.459" />
          </g>
          <g
             transform="translate(466.6641,442.5928)"
             id="g120">
            <path
               inkscape:connector-curvature="0"
               id="path122"
               style="fill:none;stroke:#8c8886;stroke-width:3.20000005;stroke-linecap:butt;stroke-linejoin:miter;stroke-miterlimit:4;stroke-dasharray:none;stroke-opacity:1"
               d="M 0,0 67.934,67.932" />
          </g>
          <g
             transform="translate(549.3672,476.2002)"
             id="g124">
            <path
               inkscape:connector-curvature="0"
               id="path126"
               style="fill:none;stroke:#2e2113;stroke-width:16;stroke-linecap:butt;stroke-linejoin:miter;stroke-miterlimit:4;stroke-dasharray:none;stroke-opacity:1"
               d="m 0,0 c 0,-26.609 -21.574,-48.184 -48.184,-48.184 -26.609,0 -48.179,21.575 -48.179,48.184 0,26.605 21.57,48.176 48.179,48.176 C -21.574,48.176 0,26.605 0,0 Z" />
          </g>
          <g
             transform="translate(322.3853,564.8252)"
             id="g128">
            <path
               inkscape:connector-curvature="0"
               id="path130"
               style="fill:none;stroke:#ffffff;stroke-width:16;stroke-linecap:butt;stroke-linejoin:miter;stroke-miterlimit:4;stroke-dasharray:none;stroke-opacity:1"
               d="M 0,0 -7.203,17.555" />
          </g>
          <g
             transform="translate(455.7969,582.3799)"
             id="g132">
            <path
               inkscape:connector-curvature="0"
               id="path134"
               style="fill:none;stroke:#ffffff;stroke-width:16;stroke-linecap:butt;stroke-linejoin:miter;stroke-miterlimit:4;stroke-dasharray:none;stroke-opacity:1"
               d="m 0,0 -7.623,22.797 9.209,35.219 -9.209,11.429 -11.43,6.014" />
          </g>
          <g
             transform="translate(451.6484,618.4624)"
             id="g136">
            <path
               inkscape:connector-curvature="0"
               id="path138"
               style="fill:none;stroke:#ffffff;stroke-width:16;stroke-linecap:butt;stroke-linejoin:miter;stroke-miterlimit:4;stroke-dasharray:none;stroke-opacity:1"
               d="m 0,0 -10.092,15.918 -17.443,0" />
          </g>
          <g
             transform="translate(338.1479,602.3765)"
             id="g140">
            <path
               inkscape:connector-curvature="0"
               id="path142"
               style="fill:#2e2113;fill-opacity:1;fill-rule:nonzero;stroke:none"
               d="m 0,0 c 0,-6.313 -11.445,-11.43 -25.563,-11.43 -14.12,0 -25.565,5.117 -25.565,11.43 0,6.311 11.445,0 25.565,0 C -11.445,0 0,6.311 0,0" />
          </g>
          <g
             transform="translate(338.1479,602.3765)"
             id="g144">
            <path
               inkscape:connector-curvature="0"
               id="path146"
               style="fill:none;stroke:#ffffff;stroke-width:16;stroke-linecap:butt;stroke-linejoin:miter;stroke-miterlimit:4;stroke-dasharray:none;stroke-opacity:1"
               d="m 0,0 c 0,-6.313 -11.445,-11.43 -25.563,-11.43 -14.12,0 -25.565,5.117 -25.565,11.43 0,6.311 11.445,0 25.565,0 C -11.445,0 0,6.311 0,0 Z" />
          </g>
          <g
             transform="translate(278.4888,484.0479)"
             id="g148">
            <path
               inkscape:connector-curvature="0"
               id="path150"
               style="fill:none;stroke:#a19f9d;stroke-width:8;stroke-linecap:round;stroke-linejoin:miter;stroke-miterlimit:4;stroke-dasharray:none;stroke-opacity:1"
               d="M 0,0 78.255,0 48.182,70.336 0,0 Z" />
          </g>
          <g
             transform="translate(457.3828,576.6846)"
             id="g152">
            <path
               inkscape:connector-curvature="0"
               id="path154"
               style="fill:none;stroke:#a19f9d;stroke-width:8;stroke-linecap:butt;stroke-linejoin:miter;stroke-miterlimit:4;stroke-dasharray:none;stroke-opacity:1"
               d="m 0,0 24.063,-72.031 19.738,-28.453" />
          </g>
          <g
             transform="translate(460.0879,571.5439)"
             id="g156">
            <path
               inkscape:connector-curvature="0"
               id="path158"
               style="fill:none;stroke:#a19f9d;stroke-width:12;stroke-linecap:butt;stroke-linejoin:miter;stroke-miterlimit:4;stroke-dasharray:none;stroke-opacity:1"
               d="m 0,0 -48.121,-41.703 -8.29,-7.106 -8.437,9.487" />
          </g>
          <g
             transform="translate(368.6948,489.5791)"
             id="g160">
            <path
               inkscape:connector-curvature="0"
               id="path162"
               style="fill:none;stroke:#a19f9d;stroke-width:12;stroke-linecap:butt;stroke-linejoin:miter;stroke-miterlimit:4;stroke-dasharray:none;stroke-opacity:1"
               d="m 0,0 23.362,22.422 -8.699,9.937" />
          </g>
          <g
             transform="translate(322.3853,564.8252)"
             id="g164">
            <path
               inkscape:connector-curvature="0"
               id="path166"
               style="fill:none;stroke:#a19f9d;stroke-width:8;stroke-linecap:butt;stroke-linejoin:miter;stroke-miterlimit:4;stroke-dasharray:none;stroke-opacity:1"
               d="M 0,0 -7.203,17.555" />
          </g>
          <g
             transform="translate(338.1479,602.3765)"
             id="g168">
            <path
               inkscape:connector-curvature="0"
               id="path170"
               style="fill:#2e2113;fill-opacity:1;fill-rule:nonzero;stroke:none"
               d="m 0,0 c 0,-6.313 -11.445,-11.43 -25.563,-11.43 -14.12,0 -25.565,5.117 -25.565,11.43 0,6.311 11.445,0 25.565,0 C -11.445,0 0,6.311 0,0" />
          </g>
          <g
             transform="translate(338.1479,602.3765)"
             id="g172">
            <path
               inkscape:connector-curvature="0"
               id="path174"
               style="fill:none;stroke:#2e2113;stroke-width:8;stroke-linecap:butt;stroke-linejoin:miter;stroke-miterlimit:4;stroke-dasharray:none;stroke-opacity:1"
               d="m 0,0 c 0,-6.313 -11.445,-11.43 -25.563,-11.43 -14.12,0 -25.565,5.117 -25.565,11.43 0,6.311 11.445,0 25.565,0 C -11.445,0 0,6.311 0,0 Z" />
          </g>
          <g
             transform="translate(455.7969,582.3799)"
             id="g176">
            <path
               inkscape:connector-curvature="0"
               id="path178"
               style="fill:none;stroke:#2e2113;stroke-width:8;stroke-linecap:butt;stroke-linejoin:miter;stroke-miterlimit:4;stroke-dasharray:none;stroke-opacity:1"
               d="m 0,0 -7.623,22.797 9.209,35.219 -9.209,11.429 -11.43,6.014" />
          </g>
          <g
             transform="translate(451.6484,618.4624)"
             id="g180">
            <path
               inkscape:connector-curvature="0"
               id="path182"
               style="fill:none;stroke:#2e2113;stroke-width:8;stroke-linecap:butt;stroke-linejoin:miter;stroke-miterlimit:4;stroke-dasharray:none;stroke-opacity:1"
               d="m 0,0 -10.092,15.918 -17.443,0" />
          </g>
          <g
             transform="translate(371.479,483.001)"
             id="g184">
            <path
               inkscape:connector-curvature="0"
               id="path186"
               style="fill:none;stroke:#2e2113;stroke-width:4;stroke-linecap:butt;stroke-linejoin:miter;stroke-miterlimit:4;stroke-dasharray:none;stroke-opacity:1"
               d="m 0,0 c 0,-8.137 -6.598,-14.734 -14.735,-14.734 -8.14,0 -14.738,6.597 -14.738,14.734 0,8.139 6.598,14.734 14.738,14.734 C -6.598,14.734 0,8.139 0,0 Z" />
          </g>
          <g
             transform="translate(285.4546,484.4072)"
             id="g188">
            <path
               inkscape:connector-curvature="0"
               id="path190"
               style="fill:none;stroke:#2e2113;stroke-width:4;stroke-linecap:butt;stroke-linejoin:miter;stroke-miterlimit:4;stroke-dasharray:none;stroke-opacity:1"
               d="m 0,0 c 0,-4.15 -3.366,-7.518 -7.519,-7.518 -4.153,0 -7.519,3.368 -7.519,7.518 0,4.152 3.366,7.52 7.519,7.52 C -3.366,7.52 0,4.152 0,0 Z" />
          </g>
          <g
             transform="translate(277.936,476.8896)"
             id="g192">
            <path
               inkscape:connector-curvature="0"
               id="path194"
               style="fill:none;stroke:#2e2113;stroke-width:4;stroke-linecap:butt;stroke-linejoin:miter;stroke-miterlimit:4;stroke-dasharray:4, 1.6;stroke-dashoffset:0;stroke-opacity:1"
               d="M 0,0 78.808,-8.623" />
          </g>
          <g
             transform="translate(277.936,491.9268)"
             id="g196">
            <path
               inkscape:connector-curvature="0"
               id="path198"
               style="fill:none;stroke:#2e2113;stroke-width:4;stroke-linecap:butt;stroke-linejoin:miter;stroke-miterlimit:4;stroke-dasharray:4, 1.6;stroke-dashoffset:0;stroke-opacity:1"
               d="M 0,0 78.808,5.809" />
          </g>
          <g
             transform="translate(579.293,802.9468)"
             id="g200">
            <path
               inkscape:connector-curvature="0"
               id="path202"
               style="fill:#f2f2f2;fill-opacity:1;fill-rule:nonzero;stroke:none"
               d="m 0,0 -11.063,9.36 0,5.958 5.532,0 c 0,0 7.234,2.553 5.531,5.107 -1.699,2.553 -5.105,-2.554 -1.699,2.553 3.402,5.106 -5.11,12.766 3.402,5.106 8.512,-7.659 11.063,-8.511 11.063,-8.511 0,0 -1.7,5.107 5.107,4.256 l 6.811,-0.851 3.402,-7.316 8.512,-5.45 c 0,0 3.375,3.405 3.39,-0.852 0.012,-4.255 0,-9.36 0,-9.36 l -3.765,0 -8.137,0 c 0,0 -3.402,-0.852 -7.66,0 C 16.172,0.85 14.467,-4.257 14.467,-4.257 6.811,-3.405 0,0 0,0" />
          </g>
          <g
             transform="translate(579.293,802.9468)"
             id="g204">
            <path
               inkscape:connector-curvature="0"
               id="path206"
               style="fill:none;stroke:#b8b6b5;stroke-width:2.4000001;stroke-linecap:butt;stroke-linejoin:miter;stroke-miterlimit:4;stroke-dasharray:none;stroke-opacity:1"
               d="m 0,0 -11.063,9.36 0,5.958 5.532,0 c 0,0 7.234,2.553 5.531,5.107 -1.699,2.553 -5.105,-2.554 -1.699,2.553 3.402,5.106 -5.11,12.766 3.402,5.106 8.512,-7.659 11.063,-8.511 11.063,-8.511 0,0 -1.7,5.107 5.107,4.256 l 6.811,-0.851 3.402,-7.316 8.512,-5.45 c 0,0 3.375,3.405 3.39,-0.852 0.012,-4.255 0,-9.36 0,-9.36 l -3.765,0 -8.137,0 c 0,0 -3.402,-0.852 -7.66,0 C 16.172,0.85 14.467,-4.257 14.467,-4.257 6.811,-3.405 0,0 0,0 Z" />
          </g>
          <g
             transform="translate(418.4438,838.6899)"
             id="g208">
            <path
               inkscape:connector-curvature="0"
               id="path210"
               style="fill:#f2f2f2;fill-opacity:1;fill-rule:nonzero;stroke:none"
               d="m 0,0 c 0,0 7.378,-0.851 9.22,3.405 1.844,4.255 0.84,5.106 5.172,5.106 4.33,0 6.736,2.553 9.789,0 l 3.055,-2.553 c 0,0 0.476,1.065 7.894,-1.17 7.422,-2.234 3.168,-10.746 7.422,-2.234 4.256,8.51 5.342,7.66 6.926,11.063 1.586,3.405 3.289,-1.701 1.586,3.405 -1.703,5.106 4.254,2.553 -1.703,5.106 -5.957,2.554 5.957,6.809 -5.957,2.554 -11.914,-4.256 -8.51,-3.406 -11.914,-4.256 -3.407,-0.851 -7.938,-2.554 -12.055,0 -4.117,2.553 0.99,-0.851 -4.117,2.553 l -5.106,3.405 c 0,0 -1.427,4.256 -4.543,5.106 l -3.116,0.851 -8.511,0 c 0,0 -0.852,-2.553 0,-5.957 l 0.851,-3.405 c 0,0 4.349,-3.404 -1.23,-3.404 -5.579,0 0.379,-0.85 -5.579,0 -5.958,0.851 -6.781,3.404 -11.05,3.404 -4.268,0 -4.268,5.107 -4.268,0 l 0,-5.106 c 0,-5.957 -5.958,-2.554 0,-5.957 5.957,-3.405 13.617,-6.81 13.617,-6.81 l 3.403,-2.552 0,-3.705 c 0,0 -10e-4,-7.686 5.107,-3.268 L 0,0 Z" />
          </g>
          <g
             transform="translate(418.4438,838.6899)"
             id="g212">
            <path
               inkscape:connector-curvature="0"
               id="path214"
               style="fill:none;stroke:#b8b6b5;stroke-width:2.4000001;stroke-linecap:butt;stroke-linejoin:miter;stroke-miterlimit:4;stroke-dasharray:none;stroke-opacity:1"
               d="m 0,0 c 0,0 7.378,-0.851 9.22,3.405 1.844,4.255 0.84,5.106 5.172,5.106 4.33,0 6.736,2.553 9.789,0 l 3.055,-2.553 c 0,0 0.476,1.065 7.894,-1.17 7.422,-2.234 3.168,-10.746 7.422,-2.234 4.256,8.51 5.342,7.66 6.926,11.063 1.586,3.405 3.289,-1.701 1.586,3.405 -1.703,5.106 4.254,2.553 -1.703,5.106 -5.957,2.554 5.957,6.809 -5.957,2.554 -11.914,-4.256 -8.51,-3.406 -11.914,-4.256 -3.407,-0.851 -7.938,-2.554 -12.055,0 -4.117,2.553 0.99,-0.851 -4.117,2.553 l -5.106,3.405 c 0,0 -1.427,4.256 -4.543,5.106 l -3.116,0.851 -8.511,0 c 0,0 -0.852,-2.553 0,-5.957 l 0.851,-3.405 c 0,0 4.349,-3.404 -1.23,-3.404 -5.579,0 0.379,-0.85 -5.579,0 -5.958,0.851 -6.781,3.404 -11.05,3.404 -4.268,0 -4.268,5.107 -4.268,0 l 0,-5.106 c 0,-5.957 -5.958,-2.554 0,-5.957 5.957,-3.405 13.617,-6.81 13.617,-6.81 l 3.403,-2.552 0,-3.705 c 0,0 -10e-4,-7.686 5.107,-3.268 L 0,0 Z" />
          </g>
          <g
             transform="translate(351.4233,779.9663)"
             id="g216">
            <path
               inkscape:connector-curvature="0"
               id="path218"
               style="fill:#f2f2f2;fill-opacity:1;fill-rule:nonzero;stroke:none"
               d="m 0,0 c 0,0 0.637,-2.553 -5.32,3.405 -5.958,5.958 -7.955,6.809 -7.955,6.809 0,0 -0.238,10.212 3.858,8.51 C -5.32,17.022 4.04,3.405 -5.32,17.022 l -9.363,13.618 c 0,0 -4.255,4.942 0,5.875 4.256,0.932 9.363,0 9.363,0 l 5.32,0 c 0,0 -4.854,-2.472 0.02,-3.323 4.872,-0.851 6.574,1.703 9.978,-0.851 3.405,-2.553 3.405,5.107 3.405,-2.553 0,-7.659 1.701,-4.255 0,-7.659 C 11.7,18.724 1.487,24.682 11.7,18.724 21.913,12.767 20.211,17.022 21.913,12.767 23.615,8.512 25.317,17.022 23.615,8.512 21.913,0 27.87,0 21.913,0 l -5.957,0 c 0,0 -3.404,-1.087 -5.958,-0.543 C 7.445,0 10.85,2.554 7.445,0 4.04,-2.553 0,0 0,0" />
          </g>
          <g
             transform="translate(351.4233,779.9663)"
             id="g220">
            <path
               inkscape:connector-curvature="0"
               id="path222"
               style="fill:none;stroke:#b8b6b5;stroke-width:2.4000001;stroke-linecap:butt;stroke-linejoin:miter;stroke-miterlimit:4;stroke-dasharray:none;stroke-opacity:1"
               d="m 0,0 c 0,0 0.637,-2.553 -5.32,3.405 -5.958,5.958 -7.955,6.809 -7.955,6.809 0,0 -0.238,10.212 3.858,8.51 C -5.32,17.022 4.04,3.405 -5.32,17.022 l -9.363,13.618 c 0,0 -4.255,4.942 0,5.875 4.256,0.932 9.363,0 9.363,0 l 5.32,0 c 0,0 -4.854,-2.472 0.02,-3.323 4.872,-0.851 6.574,1.703 9.978,-0.851 3.405,-2.553 3.405,5.107 3.405,-2.553 0,-7.659 1.701,-4.255 0,-7.659 C 11.7,18.724 1.487,24.682 11.7,18.724 21.913,12.767 20.211,17.022 21.913,12.767 23.615,8.512 25.317,17.022 23.615,8.512 21.913,0 27.87,0 21.913,0 l -5.957,0 c 0,0 -3.404,-1.087 -5.958,-0.543 C 7.445,0 10.85,2.554 7.445,0 4.04,-2.553 0,0 0,0 Z" />
          </g>
          <g
             transform="translate(278.5649,773.1587)"
             id="g224">
            <path
               inkscape:connector-curvature="0"
               id="path226"
               style="fill:#f2f2f2;fill-opacity:1;fill-rule:nonzero;stroke:none"
               d="m 0,0 c 0,0 -0.548,5.39 -3.952,5.674 -3.403,0.283 -7.659,1.985 -7.659,5.39 0,3.404 -3.405,5.107 0,9.361 3.404,4.256 -2.553,0.851 3.404,4.256 5.957,3.404 4.498,2.552 8.207,0.85 3.708,-1.701 4.049,-3.403 6.006,-5.106 1.957,-1.701 7.063,1.752 8.765,4.28 1.703,2.529 -5.105,1.678 1.703,2.529 l 6.807,0.851 c 0,0 3.406,0.899 4.257,-3.38 0.851,-4.28 -0.851,-4.28 0,-7.684 0.851,-3.404 -8.019,0.851 0.245,-6.808 l 8.265,-7.659 c 0,0 0.537,-0.852 -2.71,-2.554 C 30.091,-1.702 31.793,0 26.687,0 21.58,0 20.729,-3.216 17.324,-0.757 13.921,1.702 18.176,6.808 13.921,1.702 9.665,-3.404 13.069,-3.404 9.665,-3.404 6.262,-3.404 0,0 0,0" />
          </g>
          <g
             transform="translate(278.5649,773.1587)"
             id="g228">
            <path
               inkscape:connector-curvature="0"
               id="path230"
               style="fill:none;stroke:#b8b6b5;stroke-width:2.4000001;stroke-linecap:butt;stroke-linejoin:miter;stroke-miterlimit:4;stroke-dasharray:none;stroke-opacity:1"
               d="m 0,0 c 0,0 -0.548,5.39 -3.952,5.674 -3.403,0.283 -7.659,1.985 -7.659,5.39 0,3.404 -3.405,5.107 0,9.361 3.404,4.256 -2.553,0.851 3.404,4.256 5.957,3.404 4.498,2.552 8.207,0.85 3.708,-1.701 4.049,-3.403 6.006,-5.106 1.957,-1.701 7.063,1.752 8.765,4.28 1.703,2.529 -5.105,1.678 1.703,2.529 l 6.807,0.851 c 0,0 3.406,0.899 4.257,-3.38 0.851,-4.28 -0.851,-4.28 0,-7.684 0.851,-3.404 -8.019,0.851 0.245,-6.808 l 8.265,-7.659 c 0,0 0.537,-0.852 -2.71,-2.554 C 30.091,-1.702 31.793,0 26.687,0 21.58,0 20.729,-3.216 17.324,-0.757 13.921,1.702 18.176,6.808 13.921,1.702 9.665,-3.404 13.069,-3.404 9.665,-3.404 6.262,-3.404 0,0 0,0 Z" />
          </g>
          <g
             transform="translate(237.1665,737.4136)"
             id="g232">
            <path
               inkscape:connector-curvature="0"
               id="path234"
               style="fill:#f2f2f2;fill-opacity:1;fill-rule:nonzero;stroke:none"
               d="m 0,0 -6.859,0 -7.915,11.064 0,4.255 c 0,0 -0.308,6.809 0,7.66 0.305,0.851 0.305,11.916 3.711,9.362 3.403,-2.554 -0.852,1.701 3.403,-2.554 4.256,-4.254 14.454,-3.404 14.461,-3.404 0.008,0 3.812,0.001 5.739,-0.85 1.928,-0.851 2.779,1.701 4.481,-1.703 1.702,-3.404 -4.255,-4.724 0,-7.469 4.256,-2.744 0.851,0.66 4.256,-2.744 3.403,-3.404 3.403,0.852 3.403,-3.404 0,-4.255 -1.701,-4.255 -4.254,-5.107 -2.554,-0.85 -7.886,-0.85 -7.886,-0.85 0,0 -2.379,2.554 -4.48,-0.852 L 5.957,0 0,0 Z" />
          </g>
          <g
             transform="translate(237.1665,737.4136)"
             id="g236">
            <path
               inkscape:connector-curvature="0"
               id="path238"
               style="fill:none;stroke:#b8b6b5;stroke-width:2.4000001;stroke-linecap:butt;stroke-linejoin:miter;stroke-miterlimit:4;stroke-dasharray:none;stroke-opacity:1"
               d="m 0,0 -6.859,0 -7.915,11.064 0,4.255 c 0,0 -0.308,6.809 0,7.66 0.305,0.851 0.305,11.916 3.711,9.362 3.403,-2.554 -0.852,1.701 3.403,-2.554 4.256,-4.254 14.454,-3.404 14.461,-3.404 0.008,0 3.812,0.001 5.739,-0.85 1.928,-0.851 2.779,1.701 4.481,-1.703 1.702,-3.404 -4.255,-4.724 0,-7.469 4.256,-2.744 0.851,0.66 4.256,-2.744 3.403,-3.404 3.403,0.852 3.403,-3.404 0,-4.255 -1.701,-4.255 -4.254,-5.107 -2.554,-0.85 -7.886,-0.85 -7.886,-0.85 0,0 -2.379,2.554 -4.48,-0.852 L 5.957,0 0,0 Z" />
          </g>
        </g>
      </g>
    </g>
  </g>
</svg>
